# xmcd
#
# Track frame offsets: 
#        150
#        34278
#        84520
#
# Disc length: 1643 seconds
#
# Revision: 1
# Processed by: cddbd v1.5.2PL0 Copyright (c) Steve Scherf et al.
# Submitted via: ExactAudioCopy v0.99pb5
#
DISCID=1c066903
DTITLE=Erik Truffaz - Mexico
DYEAR=2008
DGENRE=Jazz
TTITLE0=Al Mediodia
TTITLE1=Good News From The Desert
TTITLE2=Avant l'Aube
EXTD=YEAR: 2008
EXTT0=
EXTT1=
EXTT2=
PLAYORDER=
